solid OpenSCAD_Model
  facet normal 1 -0 0
    outer loop
      vertex 7.5 -6.5 16.5
      vertex 7.5 -4.25 -7.5
      vertex 7.5 -4.25 16.5
    endloop
  endfacet
  facet normal 1 0 0
    outer loop
      vertex 7.5 -4.25 -7.5
      vertex 7.5 -6.5 16.5
      vertex 7.5 -6.5 -7.5
    endloop
  endfacet
  facet normal 0 0 -1
    outer loop
      vertex 7.5 -6.5 -7.5
      vertex 6.25 -5.25 -7.5
      vertex 7.5 -4.25 -7.5
    endloop
  endfacet
  facet normal 0 0 -1
    outer loop
      vertex 7.5 -6.5 -7.5
      vertex -6.25 -5.25 -7.5
      vertex 6.25 -5.25 -7.5
    endloop
  endfacet
  facet normal 0 0 -1
    outer loop
      vertex -7.5 -6.5 -7.5
      vertex -6.25 -5.25 -7.5
      vertex 7.5 -6.5 -7.5
    endloop
  endfacet
  facet normal 0 0 -1
    outer loop
      vertex -7.5 -4.25 -7.5
      vertex -6.25 -5.25 -7.5
      vertex -7.5 -6.5 -7.5
    endloop
  endfacet
  facet normal 0 0 -1
    outer loop
      vertex -6.25 -5.25 -7.5
      vertex -7.5 -4.25 -7.5
      vertex -6.25 -4.25 -7.5
    endloop
  endfacet
  facet normal -0 0 -1
    outer loop
      vertex 7.5 -4.25 -7.5
      vertex 6.25 -5.25 -7.5
      vertex 6.25 -4.25 -7.5
    endloop
  endfacet
  facet normal -1 0 0
    outer loop
      vertex -7.5 -6.5 -7.5
      vertex -7.5 -4.25 16.5
      vertex -7.5 -4.25 -7.5
    endloop
  endfacet
  facet normal -1 -0 0
    outer loop
      vertex -7.5 -4.25 16.5
      vertex -7.5 -6.5 -7.5
      vertex -7.5 -6.5 16.5
    endloop
  endfacet
  facet normal 0 -1 0
    outer loop
      vertex -7.5 -6.5 -7.5
      vertex 7.5 -6.5 16.5
      vertex -7.5 -6.5 16.5
    endloop
  endfacet
  facet normal 0 -1 -0
    outer loop
      vertex 7.5 -6.5 16.5
      vertex -7.5 -6.5 -7.5
      vertex 7.5 -6.5 -7.5
    endloop
  endfacet
  facet normal -1 0 0
    outer loop
      vertex 6.25 -5.25 -7.5
      vertex 6.25 -4.25 16.5
      vertex 6.25 -4.25 -7.5
    endloop
  endfacet
  facet normal -1 -0 0
    outer loop
      vertex 6.25 -4.25 16.5
      vertex 6.25 -5.25 -7.5
      vertex 6.25 -5.25 16.5
    endloop
  endfacet
  facet normal 1 -0 0
    outer loop
      vertex -6.25 -5.25 16.5
      vertex -6.25 -4.25 -7.5
      vertex -6.25 -4.25 16.5
    endloop
  endfacet
  facet normal 1 0 0
    outer loop
      vertex -6.25 -4.25 -7.5
      vertex -6.25 -5.25 16.5
      vertex -6.25 -5.25 -7.5
    endloop
  endfacet
  facet normal 0 1 -0
    outer loop
      vertex 6.25 -5.25 -7.5
      vertex -6.25 -5.25 16.5
      vertex 6.25 -5.25 16.5
    endloop
  endfacet
  facet normal 0 1 0
    outer loop
      vertex -6.25 -5.25 16.5
      vertex 6.25 -5.25 -7.5
      vertex -6.25 -5.25 -7.5
    endloop
  endfacet
  facet normal 0 0 1
    outer loop
      vertex -6.25 -4.25 16.5
      vertex -7.5 -4.25 16.5
      vertex -6.25 -5.25 16.5
    endloop
  endfacet
  facet normal 0 0 1
    outer loop
      vertex 6.25 -5.25 16.5
      vertex 7.5 -4.25 16.5
      vertex 6.25 -4.25 16.5
    endloop
  endfacet
  facet normal 0 0 1
    outer loop
      vertex 7.5 -4.25 16.5
      vertex 6.25 -5.25 16.5
      vertex 7.5 -6.5 16.5
    endloop
  endfacet
  facet normal -0 0 1
    outer loop
      vertex -6.25 -5.25 16.5
      vertex 7.5 -6.5 16.5
      vertex 6.25 -5.25 16.5
    endloop
  endfacet
  facet normal 0 0 1
    outer loop
      vertex -6.25 -5.25 16.5
      vertex -7.5 -6.5 16.5
      vertex 7.5 -6.5 16.5
    endloop
  endfacet
  facet normal 0 0 1
    outer loop
      vertex -7.5 -6.5 16.5
      vertex -6.25 -5.25 16.5
      vertex -7.5 -4.25 16.5
    endloop
  endfacet
  facet normal 0 1 -0
    outer loop
      vertex -6.25 -4.25 -7.5
      vertex -7.5 -4.25 16.5
      vertex -6.25 -4.25 16.5
    endloop
  endfacet
  facet normal 0 1 0
    outer loop
      vertex -7.5 -4.25 16.5
      vertex -6.25 -4.25 -7.5
      vertex -7.5 -4.25 -7.5
    endloop
  endfacet
  facet normal 0 1 -0
    outer loop
      vertex 7.5 -4.25 -7.5
      vertex 6.25 -4.25 16.5
      vertex 7.5 -4.25 16.5
    endloop
  endfacet
  facet normal 0 1 0
    outer loop
      vertex 6.25 -4.25 16.5
      vertex 7.5 -4.25 -7.5
      vertex 6.25 -4.25 -7.5
    endloop
  endfacet
endsolid OpenSCAD_Model
